<svg width="1019" height="638" viewBox="0 0 1019 638" fill="none" xmlns="http://www.w3.org/2000/svg">
<g filter="url(#filter0_d_111_43)">
<rect x="139" y="95" width="750" height="440" rx="30" fill="#2F2F2F"/>
</g>
<path d="M247.046 173.369C246.094 173.369 245.356 173.108 244.834 172.585C244.342 172.032 244.096 171.264 244.096 170.28V156.267L245.341 159.816L234.231 144.189C233.832 143.636 233.647 143.052 233.678 142.437C233.74 141.792 234.001 141.254 234.462 140.824C234.923 140.363 235.568 140.132 236.398 140.132C237.012 140.132 237.566 140.286 238.057 140.593C238.58 140.901 239.071 141.377 239.532 142.022L247.784 153.731H246.493L254.791 142.022C255.282 141.346 255.759 140.87 256.22 140.593C256.681 140.286 257.249 140.132 257.925 140.132C258.724 140.132 259.339 140.348 259.769 140.778C260.23 141.177 260.461 141.684 260.461 142.299C260.491 142.914 260.276 143.559 259.815 144.235L248.798 159.816L249.997 156.267V170.28C249.997 172.339 249.013 173.369 247.046 173.369ZM270.748 173.461C268.412 173.461 266.384 172.985 264.663 172.032C262.942 171.079 261.605 169.727 260.652 167.975C259.7 166.193 259.223 164.103 259.223 161.706C259.223 159.893 259.485 158.28 260.007 156.866C260.56 155.421 261.344 154.192 262.358 153.178C263.372 152.133 264.586 151.35 266 150.827C267.413 150.274 268.996 149.997 270.748 149.997C273.083 149.997 275.112 150.474 276.833 151.426C278.554 152.379 279.89 153.731 280.843 155.483C281.796 157.235 282.272 159.309 282.272 161.706C282.272 163.519 281.996 165.148 281.442 166.592C280.92 168.037 280.152 169.281 279.137 170.326C278.123 171.34 276.909 172.124 275.496 172.677C274.082 173.2 272.499 173.461 270.748 173.461ZM270.748 169.082C271.885 169.082 272.884 168.805 273.744 168.252C274.605 167.699 275.265 166.884 275.726 165.809C276.218 164.702 276.464 163.335 276.464 161.706C276.464 159.248 275.941 157.419 274.896 156.22C273.852 154.991 272.469 154.377 270.748 154.377C269.611 154.377 268.612 154.653 267.751 155.206C266.891 155.729 266.215 156.543 265.723 157.65C265.262 158.725 265.032 160.077 265.032 161.706C265.032 164.134 265.554 165.978 266.599 167.238C267.644 168.467 269.027 169.082 270.748 169.082ZM295.187 173.461C293.313 173.461 291.761 173.123 290.531 172.447C289.302 171.74 288.38 170.695 287.766 169.312C287.182 167.929 286.89 166.208 286.89 164.149V152.994C286.89 152.01 287.136 151.288 287.627 150.827C288.119 150.335 288.826 150.09 289.748 150.09C290.67 150.09 291.377 150.335 291.868 150.827C292.391 151.288 292.652 152.01 292.652 152.994V164.241C292.652 165.84 292.975 167.023 293.62 167.791C294.265 168.559 295.295 168.943 296.709 168.943C298.245 168.943 299.505 168.421 300.489 167.376C301.472 166.3 301.964 164.887 301.964 163.135V152.994C301.964 152.01 302.21 151.288 302.701 150.827C303.193 150.335 303.9 150.09 304.822 150.09C305.744 150.09 306.451 150.335 306.942 150.827C307.465 151.288 307.726 152.01 307.726 152.994V170.419C307.726 172.385 306.789 173.369 304.914 173.369C304.023 173.369 303.331 173.123 302.84 172.631C302.348 172.109 302.102 171.371 302.102 170.419V166.915L302.747 168.298C302.102 169.958 301.119 171.233 299.797 172.124C298.506 173.015 296.97 173.461 295.187 173.461ZM316.673 173.369C315.721 173.369 314.983 173.123 314.461 172.631C313.969 172.109 313.723 171.371 313.723 170.419V152.994C313.723 152.041 313.969 151.319 314.461 150.827C314.953 150.335 315.644 150.09 316.535 150.09C317.426 150.09 318.118 150.335 318.61 150.827C319.101 151.319 319.347 152.041 319.347 152.994V155.898H318.886C319.316 154.054 320.162 152.656 321.422 151.703C322.682 150.75 324.356 150.182 326.446 149.997C327.092 149.936 327.599 150.105 327.967 150.504C328.367 150.873 328.597 151.457 328.659 152.256C328.72 153.024 328.536 153.654 328.106 154.146C327.706 154.607 327.092 154.884 326.262 154.976L325.248 155.068C323.373 155.252 321.959 155.836 321.007 156.82C320.054 157.772 319.578 159.125 319.578 160.876V170.419C319.578 171.371 319.332 172.109 318.84 172.631C318.348 173.123 317.626 173.369 316.673 173.369ZM359.41 173.461C356.275 173.461 353.525 172.77 351.158 171.387C348.823 170.004 347.01 168.068 345.719 165.578C344.428 163.058 343.783 160.108 343.783 156.728C343.783 154.177 344.152 151.887 344.889 149.859C345.627 147.8 346.672 146.048 348.024 144.604C349.407 143.129 351.051 142.007 352.956 141.239C354.892 140.44 357.044 140.04 359.41 140.04C362.575 140.04 365.326 140.732 367.661 142.115C369.997 143.467 371.81 145.388 373.101 147.877C374.392 150.366 375.037 153.301 375.037 156.681C375.037 159.232 374.668 161.537 373.931 163.596C373.193 165.655 372.133 167.422 370.75 168.897C369.398 170.372 367.754 171.51 365.817 172.309C363.912 173.077 361.776 173.461 359.41 173.461ZM359.41 168.39C361.407 168.39 363.098 167.929 364.481 167.007C365.894 166.085 366.97 164.749 367.707 162.997C368.476 161.245 368.86 159.155 368.86 156.728C368.86 153.04 368.03 150.182 366.371 148.153C364.742 146.125 362.422 145.111 359.41 145.111C357.443 145.111 355.753 145.572 354.339 146.494C352.926 147.385 351.835 148.707 351.066 150.458C350.329 152.179 349.96 154.269 349.96 156.728C349.96 160.385 350.79 163.243 352.449 165.302C354.109 167.361 356.429 168.39 359.41 168.39ZM383.342 173.369C382.42 173.369 381.713 173.123 381.221 172.631C380.73 172.109 380.484 171.371 380.484 170.419V152.994C380.484 152.041 380.73 151.319 381.221 150.827C381.713 150.335 382.404 150.09 383.296 150.09C384.187 150.09 384.878 150.335 385.37 150.827C385.862 151.319 386.108 152.041 386.108 152.994V156.128L385.601 154.976C386.277 153.347 387.321 152.118 388.735 151.288C390.18 150.428 391.808 149.997 393.621 149.997C395.435 149.997 396.925 150.335 398.093 151.011C399.261 151.688 400.137 152.717 400.721 154.1C401.304 155.452 401.596 157.173 401.596 159.263V170.419C401.596 171.371 401.351 172.109 400.859 172.631C400.367 173.123 399.66 173.369 398.738 173.369C397.816 173.369 397.094 173.123 396.572 172.631C396.08 172.109 395.834 171.371 395.834 170.419V159.54C395.834 157.788 395.496 156.512 394.82 155.713C394.175 154.914 393.161 154.515 391.778 154.515C390.087 154.515 388.735 155.053 387.721 156.128C386.738 157.173 386.246 158.571 386.246 160.323V170.419C386.246 172.385 385.278 173.369 383.342 173.369ZM418.558 173.461C416.008 173.461 413.81 172.985 411.967 172.032C410.123 171.079 408.694 169.727 407.679 167.975C406.696 166.224 406.204 164.149 406.204 161.752C406.204 159.417 406.681 157.373 407.633 155.621C408.617 153.87 409.954 152.502 411.644 151.519C413.365 150.504 415.316 149.997 417.498 149.997C419.096 149.997 420.525 150.259 421.785 150.781C423.076 151.303 424.167 152.056 425.058 153.04C425.98 154.023 426.672 155.222 427.133 156.635C427.624 158.018 427.87 159.586 427.87 161.337C427.87 161.89 427.67 162.321 427.271 162.628C426.902 162.905 426.364 163.043 425.657 163.043H410.86V159.724H423.814L423.076 160.415C423.076 159.002 422.861 157.819 422.431 156.866C422.031 155.913 421.432 155.191 420.633 154.699C419.865 154.177 418.897 153.916 417.729 153.916C416.438 153.916 415.332 154.223 414.41 154.838C413.518 155.421 412.827 156.267 412.335 157.373C411.874 158.449 411.644 159.739 411.644 161.245V161.568C411.644 164.088 412.228 165.978 413.396 167.238C414.594 168.467 416.346 169.082 418.651 169.082C419.45 169.082 420.341 168.99 421.324 168.805C422.338 168.59 423.291 168.237 424.182 167.745C424.828 167.376 425.396 167.222 425.888 167.284C426.38 167.315 426.764 167.484 427.04 167.791C427.348 168.098 427.532 168.482 427.594 168.943C427.655 169.374 427.563 169.819 427.317 170.28C427.102 170.741 426.718 171.141 426.165 171.479C425.089 172.155 423.844 172.662 422.431 173C421.048 173.307 419.757 173.461 418.558 173.461ZM435.139 162.951C434.463 162.951 433.895 162.736 433.434 162.305C433.003 161.844 432.788 161.291 432.788 160.646C432.788 159.97 433.003 159.417 433.434 158.986C433.895 158.556 434.463 158.341 435.139 158.341H444.958C445.603 158.341 446.141 158.556 446.571 158.986C447.032 159.417 447.263 159.97 447.263 160.646C447.263 161.291 447.032 161.844 446.571 162.305C446.141 162.736 445.603 162.951 444.958 162.951H435.139ZM462.14 173.369C461.188 173.369 460.45 173.108 459.928 172.585C459.436 172.032 459.19 171.279 459.19 170.326V145.434H450.201C449.402 145.434 448.772 145.219 448.311 144.788C447.881 144.327 447.666 143.713 447.666 142.944C447.666 142.145 447.881 141.546 448.311 141.147C448.772 140.716 449.402 140.501 450.201 140.501H474.08C474.879 140.501 475.493 140.716 475.924 141.147C476.385 141.546 476.615 142.145 476.615 142.944C476.615 143.713 476.385 144.327 475.924 144.788C475.493 145.219 474.879 145.434 474.08 145.434H465.091V170.326C465.091 171.279 464.845 172.032 464.353 172.585C463.861 173.108 463.124 173.369 462.14 173.369ZM484.81 173.323C483.888 173.323 483.182 173.046 482.69 172.493C482.198 171.94 481.952 171.171 481.952 170.188V153.27C481.952 152.256 482.198 151.488 482.69 150.965C483.182 150.412 483.888 150.136 484.81 150.136C485.732 150.136 486.439 150.412 486.931 150.965C487.453 151.488 487.715 152.256 487.715 153.27V170.188C487.715 171.171 487.469 171.94 486.977 172.493C486.485 173.046 485.763 173.323 484.81 173.323ZM484.81 145.849C483.735 145.849 482.89 145.587 482.275 145.065C481.691 144.512 481.399 143.759 481.399 142.806C481.399 141.823 481.691 141.07 482.275 140.547C482.89 140.025 483.735 139.764 484.81 139.764C485.917 139.764 486.762 140.025 487.346 140.547C487.93 141.07 488.222 141.823 488.222 142.806C488.222 143.759 487.93 144.512 487.346 145.065C486.762 145.587 485.917 145.849 484.81 145.849ZM496.652 173.369C495.73 173.369 495.023 173.123 494.532 172.631C494.04 172.109 493.794 171.371 493.794 170.419V152.994C493.794 152.041 494.04 151.319 494.532 150.827C495.023 150.335 495.715 150.09 496.606 150.09C497.497 150.09 498.189 150.335 498.68 150.827C499.172 151.319 499.418 152.041 499.418 152.994V156.359L498.911 154.976C499.525 153.439 500.478 152.225 501.769 151.334C503.06 150.443 504.596 149.997 506.379 149.997C508.192 149.997 509.682 150.428 510.85 151.288C512.018 152.149 512.832 153.47 513.293 155.252H512.648C513.263 153.624 514.277 152.348 515.69 151.426C517.104 150.474 518.733 149.997 520.577 149.997C522.298 149.997 523.711 150.335 524.818 151.011C525.955 151.688 526.8 152.717 527.353 154.1C527.906 155.452 528.183 157.173 528.183 159.263V170.419C528.183 171.371 527.922 172.109 527.399 172.631C526.907 173.123 526.201 173.369 525.279 173.369C524.357 173.369 523.65 173.123 523.158 172.631C522.666 172.109 522.421 171.371 522.421 170.419V159.493C522.421 157.772 522.129 156.512 521.545 155.713C520.992 154.914 520.039 154.515 518.687 154.515C517.181 154.515 515.998 155.053 515.137 156.128C514.277 157.173 513.846 158.633 513.846 160.508V170.419C513.846 171.371 513.601 172.109 513.109 172.631C512.617 173.123 511.91 173.369 510.988 173.369C510.066 173.369 509.344 173.123 508.822 172.631C508.33 172.109 508.084 171.371 508.084 170.419V159.493C508.084 157.772 507.792 156.512 507.208 155.713C506.655 154.914 505.718 154.515 504.396 154.515C502.891 154.515 501.707 155.053 500.847 156.128C499.986 157.173 499.556 158.633 499.556 160.508V170.419C499.556 172.385 498.588 173.369 496.652 173.369ZM545.237 173.461C542.686 173.461 540.489 172.985 538.645 172.032C536.801 171.079 535.372 169.727 534.358 167.975C533.374 166.224 532.883 164.149 532.883 161.752C532.883 159.417 533.359 157.373 534.312 155.621C535.295 153.87 536.632 152.502 538.322 151.519C540.043 150.504 541.995 149.997 544.176 149.997C545.775 149.997 547.204 150.259 548.464 150.781C549.754 151.303 550.845 152.056 551.736 153.04C552.658 154.023 553.35 155.222 553.811 156.635C554.303 158.018 554.548 159.586 554.548 161.337C554.548 161.89 554.349 162.321 553.949 162.628C553.58 162.905 553.043 163.043 552.336 163.043H537.538V159.724H550.492L549.754 160.415C549.754 159.002 549.539 157.819 549.109 156.866C548.709 155.913 548.11 155.191 547.311 154.699C546.543 154.177 545.575 153.916 544.407 153.916C543.116 153.916 542.01 154.223 541.088 154.838C540.197 155.421 539.505 156.267 539.014 157.373C538.553 158.449 538.322 159.739 538.322 161.245V161.568C538.322 164.088 538.906 165.978 540.074 167.238C541.272 168.467 543.024 169.082 545.329 169.082C546.128 169.082 547.019 168.99 548.003 168.805C549.017 168.59 549.969 168.237 550.861 167.745C551.506 167.376 552.075 167.222 552.566 167.284C553.058 167.315 553.442 167.484 553.719 167.791C554.026 168.098 554.21 168.482 554.272 168.943C554.333 169.374 554.241 169.819 553.995 170.28C553.78 170.741 553.396 171.141 552.843 171.479C551.767 172.155 550.523 172.662 549.109 173C547.726 173.307 546.435 173.461 545.237 173.461ZM561.817 162.951C561.141 162.951 560.573 162.736 560.112 162.305C559.682 161.844 559.466 161.291 559.466 160.646C559.466 159.97 559.682 159.417 560.112 158.986C560.573 158.556 561.141 158.341 561.817 158.341H571.636C572.282 158.341 572.819 158.556 573.25 158.986C573.711 159.417 573.941 159.97 573.941 160.646C573.941 161.291 573.711 161.844 573.25 162.305C572.819 162.736 572.282 162.951 571.636 162.951H561.817ZM583.188 173.369C582.235 173.369 581.498 173.108 580.975 172.585C580.484 172.032 580.238 171.279 580.238 170.326V143.498C580.238 142.514 580.499 141.777 581.021 141.285C581.544 140.762 582.281 140.501 583.234 140.501H594.344C597.908 140.501 600.659 141.392 602.595 143.175C604.531 144.957 605.499 147.447 605.499 150.643C605.499 153.839 604.531 156.343 602.595 158.157C600.659 159.939 597.908 160.83 594.344 160.83H586.138V170.326C586.138 171.279 585.892 172.032 585.401 172.585C584.909 173.108 584.171 173.369 583.188 173.369ZM586.138 156.174H593.422C595.511 156.174 597.094 155.713 598.17 154.791C599.245 153.839 599.783 152.456 599.783 150.643C599.783 148.83 599.245 147.462 598.17 146.54C597.094 145.618 595.511 145.157 593.422 145.157H586.138V156.174ZM616.097 173.461C614.469 173.461 613.009 173.154 611.718 172.539C610.458 171.894 609.459 171.033 608.722 169.958C608.015 168.882 607.661 167.668 607.661 166.316C607.661 164.656 608.092 163.35 608.952 162.398C609.813 161.414 611.211 160.707 613.147 160.277C615.083 159.847 617.68 159.632 620.938 159.632H623.242V162.951H620.984C619.078 162.951 617.557 163.043 616.42 163.227C615.283 163.412 614.469 163.734 613.977 164.195C613.516 164.626 613.285 165.24 613.285 166.039C613.285 167.053 613.639 167.883 614.346 168.529C615.052 169.174 616.036 169.497 617.296 169.497C618.31 169.497 619.201 169.266 619.97 168.805C620.769 168.313 621.399 167.653 621.86 166.823C622.32 165.993 622.551 165.04 622.551 163.965V158.664C622.551 157.127 622.213 156.021 621.537 155.345C620.861 154.669 619.724 154.33 618.126 154.33C617.234 154.33 616.266 154.438 615.221 154.653C614.207 154.868 613.132 155.237 611.995 155.76C611.411 156.036 610.888 156.113 610.427 155.99C609.997 155.867 609.659 155.621 609.413 155.252C609.167 154.853 609.044 154.423 609.044 153.962C609.044 153.501 609.167 153.055 609.413 152.625C609.659 152.164 610.074 151.826 610.658 151.611C612.071 151.027 613.424 150.612 614.714 150.366C616.036 150.12 617.234 149.997 618.31 149.997C620.523 149.997 622.336 150.335 623.75 151.011C625.194 151.688 626.27 152.717 626.976 154.1C627.683 155.452 628.037 157.204 628.037 159.355V170.419C628.037 171.371 627.806 172.109 627.345 172.631C626.884 173.123 626.223 173.369 625.363 173.369C624.502 173.369 623.826 173.123 623.335 172.631C622.874 172.109 622.643 171.371 622.643 170.419V168.206H623.012C622.797 169.281 622.367 170.219 621.721 171.018C621.107 171.786 620.323 172.385 619.37 172.816C618.418 173.246 617.327 173.461 616.097 173.461ZM642.137 173.461C640.815 173.461 639.417 173.323 637.942 173.046C636.467 172.77 635.145 172.293 633.977 171.617C633.486 171.31 633.132 170.956 632.917 170.557C632.733 170.127 632.656 169.712 632.687 169.312C632.748 168.882 632.902 168.513 633.148 168.206C633.424 167.899 633.762 167.699 634.162 167.607C634.592 167.514 635.053 167.591 635.545 167.837C636.774 168.421 637.926 168.836 639.002 169.082C640.078 169.297 641.138 169.404 642.183 169.404C643.658 169.404 644.749 169.159 645.456 168.667C646.193 168.144 646.562 167.468 646.562 166.639C646.562 165.932 646.316 165.394 645.824 165.025C645.363 164.626 644.657 164.334 643.704 164.149L639.094 163.273C637.189 162.905 635.729 162.213 634.715 161.199C633.732 160.154 633.24 158.817 633.24 157.189C633.24 155.713 633.639 154.438 634.438 153.362C635.268 152.287 636.405 151.457 637.85 150.873C639.294 150.289 640.953 149.997 642.828 149.997C644.18 149.997 645.44 150.151 646.608 150.458C647.807 150.735 648.959 151.18 650.065 151.795C650.526 152.041 650.834 152.364 650.987 152.763C651.172 153.163 651.218 153.578 651.126 154.008C651.033 154.407 650.849 154.776 650.573 155.114C650.296 155.421 649.943 155.621 649.512 155.713C649.113 155.775 648.652 155.683 648.129 155.437C647.177 154.945 646.255 154.592 645.363 154.377C644.503 154.161 643.673 154.054 642.874 154.054C641.368 154.054 640.247 154.315 639.509 154.838C638.802 155.36 638.449 156.051 638.449 156.912C638.449 157.557 638.664 158.095 639.094 158.525C639.524 158.956 640.185 159.248 641.076 159.401L645.686 160.277C647.684 160.646 649.19 161.322 650.204 162.305C651.249 163.289 651.771 164.61 651.771 166.27C651.771 168.513 650.895 170.28 649.143 171.571C647.392 172.831 645.056 173.461 642.137 173.461ZM664.645 173.461C663.324 173.461 661.926 173.323 660.45 173.046C658.975 172.77 657.654 172.293 656.486 171.617C655.994 171.31 655.641 170.956 655.426 170.557C655.241 170.127 655.165 169.712 655.195 169.312C655.257 168.882 655.41 168.513 655.656 168.206C655.933 167.899 656.271 167.699 656.67 167.607C657.101 167.514 657.562 167.591 658.053 167.837C659.283 168.421 660.435 168.836 661.511 169.082C662.586 169.297 663.646 169.404 664.691 169.404C666.166 169.404 667.257 169.159 667.964 168.667C668.702 168.144 669.071 167.468 669.071 166.639C669.071 165.932 668.825 165.394 668.333 165.025C667.872 164.626 667.165 164.334 666.213 164.149L661.603 163.273C659.697 162.905 658.238 162.213 657.224 161.199C656.24 160.154 655.748 158.817 655.748 157.189C655.748 155.713 656.148 154.438 656.947 153.362C657.777 152.287 658.914 151.457 660.358 150.873C661.803 150.289 663.462 149.997 665.337 149.997C666.689 149.997 667.949 150.151 669.117 150.458C670.315 150.735 671.468 151.18 672.574 151.795C673.035 152.041 673.342 152.364 673.496 152.763C673.68 153.163 673.726 153.578 673.634 154.008C673.542 154.407 673.358 154.776 673.081 155.114C672.805 155.421 672.451 155.621 672.021 155.713C671.621 155.775 671.16 155.683 670.638 155.437C669.685 154.945 668.763 154.592 667.872 154.377C667.012 154.161 666.182 154.054 665.383 154.054C663.877 154.054 662.755 154.315 662.018 154.838C661.311 155.36 660.957 156.051 660.957 156.912C660.957 157.557 661.173 158.095 661.603 158.525C662.033 158.956 662.694 159.248 663.585 159.401L668.195 160.277C670.192 160.646 671.698 161.322 672.712 162.305C673.757 163.289 674.28 164.61 674.28 166.27C674.28 168.513 673.404 170.28 671.652 171.571C669.9 172.831 667.565 173.461 664.645 173.461ZM687.165 173.369C686.396 173.369 685.736 173.184 685.182 172.816C684.629 172.416 684.184 171.801 683.846 170.972L677.161 153.916C676.885 153.178 676.793 152.533 676.885 151.98C677.008 151.396 677.3 150.935 677.761 150.597C678.222 150.259 678.836 150.09 679.605 150.09C680.281 150.09 680.834 150.259 681.264 150.597C681.694 150.904 682.063 151.503 682.37 152.394L687.948 167.745H686.888L692.65 152.026C692.896 151.35 693.219 150.858 693.618 150.55C694.048 150.243 694.602 150.09 695.278 150.09C695.954 150.09 696.507 150.259 696.937 150.597C697.368 150.904 697.69 151.38 697.905 152.026L703.575 167.745H702.607L708.231 152.256C708.538 151.426 708.923 150.858 709.384 150.55C709.875 150.243 710.413 150.09 710.997 150.09C711.735 150.09 712.303 150.274 712.703 150.643C713.102 151.011 713.333 151.488 713.394 152.072C713.456 152.625 713.348 153.24 713.071 153.916L706.433 170.972C706.126 171.771 705.68 172.37 705.097 172.77C704.543 173.169 703.883 173.369 703.114 173.369C702.346 173.369 701.67 173.169 701.086 172.77C700.533 172.37 700.103 171.771 699.795 170.972L693.757 154.976H696.384L690.484 170.926C690.176 171.755 689.746 172.37 689.193 172.77C688.64 173.169 687.964 173.369 687.165 173.369ZM727.582 173.461C725.246 173.461 723.218 172.985 721.497 172.032C719.776 171.079 718.439 169.727 717.486 167.975C716.534 166.193 716.057 164.103 716.057 161.706C716.057 159.893 716.319 158.28 716.841 156.866C717.394 155.421 718.178 154.192 719.192 153.178C720.206 152.133 721.42 151.35 722.834 150.827C724.247 150.274 725.83 149.997 727.582 149.997C729.917 149.997 731.946 150.474 733.667 151.426C735.388 152.379 736.724 153.731 737.677 155.483C738.63 157.235 739.106 159.309 739.106 161.706C739.106 163.519 738.83 165.148 738.276 166.592C737.754 168.037 736.986 169.281 735.972 170.326C734.957 171.34 733.743 172.124 732.33 172.677C730.916 173.2 729.333 173.461 727.582 173.461ZM727.582 169.082C728.719 169.082 729.718 168.805 730.578 168.252C731.439 167.699 732.099 166.884 732.56 165.809C733.052 164.702 733.298 163.335 733.298 161.706C733.298 159.248 732.775 157.419 731.731 156.22C730.686 154.991 729.303 154.377 727.582 154.377C726.445 154.377 725.446 154.653 724.585 155.206C723.725 155.729 723.049 156.543 722.557 157.65C722.096 158.725 721.866 160.077 721.866 161.706C721.866 164.134 722.388 165.978 723.433 167.238C724.478 168.467 725.861 169.082 727.582 169.082ZM746.812 173.369C745.86 173.369 745.122 173.123 744.6 172.631C744.108 172.109 743.862 171.371 743.862 170.419V152.994C743.862 152.041 744.108 151.319 744.6 150.827C745.091 150.335 745.783 150.09 746.674 150.09C747.565 150.09 748.257 150.335 748.748 150.827C749.24 151.319 749.486 152.041 749.486 152.994V155.898H749.025C749.455 154.054 750.3 152.656 751.56 151.703C752.82 150.75 754.495 150.182 756.585 149.997C757.23 149.936 757.737 150.105 758.106 150.504C758.506 150.873 758.736 151.457 758.798 152.256C758.859 153.024 758.675 153.654 758.245 154.146C757.845 154.607 757.23 154.884 756.401 154.976L755.386 155.068C753.512 155.252 752.098 155.836 751.145 156.82C750.193 157.772 749.716 159.125 749.716 160.876V170.419C749.716 171.371 749.471 172.109 748.979 172.631C748.487 173.123 747.765 173.369 746.812 173.369ZM770.22 173.461C768.253 173.461 766.517 172.985 765.011 172.032C763.536 171.079 762.384 169.727 761.554 167.975C760.724 166.193 760.309 164.103 760.309 161.706C760.309 159.278 760.724 157.204 761.554 155.483C762.384 153.731 763.536 152.379 765.011 151.426C766.517 150.474 768.253 149.997 770.22 149.997C772.095 149.997 773.724 150.458 775.107 151.38C776.52 152.302 777.473 153.516 777.965 155.022H777.457V143.037C777.457 142.084 777.703 141.362 778.195 140.87C778.687 140.378 779.394 140.132 780.316 140.132C781.237 140.132 781.944 140.378 782.436 140.87C782.958 141.362 783.22 142.084 783.22 143.037V170.419C783.22 171.371 782.974 172.109 782.482 172.631C781.99 173.123 781.284 173.369 780.362 173.369C779.44 173.369 778.733 173.123 778.241 172.631C777.749 172.109 777.504 171.371 777.504 170.419V166.823L778.011 168.206C777.55 169.804 776.612 171.079 775.199 172.032C773.785 172.985 772.126 173.461 770.22 173.461ZM771.834 169.082C772.971 169.082 773.969 168.805 774.83 168.252C775.69 167.699 776.351 166.884 776.812 165.809C777.304 164.702 777.55 163.335 777.55 161.706C777.55 159.248 777.027 157.419 775.982 156.22C774.937 154.991 773.555 154.377 771.834 154.377C770.697 154.377 769.698 154.653 768.837 155.206C767.977 155.729 767.301 156.543 766.809 157.65C766.348 158.725 766.117 160.077 766.117 161.706C766.117 164.134 766.64 165.978 767.685 167.238C768.73 168.467 770.113 169.082 771.834 169.082Z" fill="#D7D9CE"/>
<rect x="178.5" y="221.5" width="662" height="256" rx="11.5" fill="#2F2F2F" stroke="#7C7C7C" stroke-dasharray="10 10"/>
<path d="M249 329L323.571 329M547.286 329L621.857 329M696.429 329L771 329M398.143 329L472.714 329" stroke="#279AF1"/>
<path d="M249 445L323.571 445M547.286 445L621.857 445M696.429 445L771 445M398.143 445L472.714 445" stroke="#279AF1"/>
<path d="M284.42 256.968C287.381 256.968 289.989 257.438 292.244 258.378C294.5 259.271 296.262 260.61 297.531 262.396C298.846 264.181 299.504 266.39 299.504 269.021C299.504 271.042 299.058 272.804 298.165 274.308C297.319 275.811 296.168 277.151 294.711 278.325C293.254 279.453 291.657 280.463 289.918 281.356C291.986 282.343 293.865 283.471 295.557 284.74C297.249 285.961 298.588 287.395 299.575 289.039C300.608 290.684 301.125 292.658 301.125 294.96C301.125 297.78 300.444 300.223 299.081 302.291C297.719 304.311 295.792 305.885 293.301 307.013C290.858 308.141 287.968 308.705 284.632 308.705C281.013 308.705 277.935 308.164 275.398 307.084C272.907 306.003 271.004 304.476 269.689 302.502C268.42 300.481 267.785 298.038 267.785 295.172C267.785 292.869 268.255 290.872 269.195 289.18C270.182 287.489 271.474 286.032 273.072 284.81C274.67 283.588 276.385 282.555 278.217 281.709C276.573 280.769 275.069 279.712 273.706 278.537C272.391 277.315 271.333 275.929 270.534 274.378C269.783 272.827 269.407 271.018 269.407 268.951C269.407 266.366 270.064 264.205 271.38 262.466C272.696 260.68 274.482 259.318 276.737 258.378C278.993 257.438 281.554 256.968 284.42 256.968ZM273.847 295.242C273.847 297.686 274.717 299.73 276.455 301.374C278.194 302.972 280.872 303.771 284.491 303.771C286.793 303.771 288.72 303.395 290.27 302.643C291.821 301.891 292.996 300.857 293.795 299.542C294.641 298.226 295.064 296.722 295.064 295.031C295.064 293.386 294.617 291.953 293.724 290.731C292.878 289.462 291.657 288.334 290.059 287.348C288.508 286.361 286.652 285.468 284.491 284.669L283.363 284.246C281.295 285.139 279.557 286.102 278.147 287.136C276.737 288.17 275.656 289.345 274.905 290.66C274.2 291.976 273.847 293.503 273.847 295.242ZM284.35 261.973C281.765 261.973 279.627 262.607 277.935 263.876C276.291 265.097 275.468 266.883 275.468 269.233C275.468 270.971 275.868 272.428 276.667 273.603C277.513 274.778 278.64 275.788 280.05 276.634C281.46 277.433 283.01 278.208 284.702 278.96C286.347 278.255 287.803 277.48 289.072 276.634C290.388 275.788 291.422 274.778 292.174 273.603C292.972 272.381 293.372 270.924 293.372 269.233C293.372 266.883 292.55 265.097 290.905 263.876C289.26 262.607 287.075 261.973 284.35 261.973Z" fill="white"/>
<path d="M420.208 286.502C420.208 283.588 420.396 280.722 420.772 277.902C421.195 275.083 421.9 272.428 422.887 269.938C423.874 267.4 425.236 265.168 426.975 263.241C428.714 261.268 430.899 259.741 433.53 258.66C436.209 257.532 439.451 256.968 443.257 256.968C444.244 256.968 445.325 257.015 446.5 257.109C447.721 257.203 448.708 257.368 449.46 257.602V262.889C448.614 262.607 447.651 262.396 446.57 262.255C445.536 262.114 444.479 262.043 443.398 262.043C440.156 262.043 437.454 262.583 435.292 263.664C433.131 264.745 431.416 266.225 430.147 268.105C428.925 269.985 428.032 272.146 427.468 274.59C426.905 277.033 426.552 279.641 426.411 282.414H426.834C427.539 281.286 428.432 280.275 429.513 279.383C430.593 278.49 431.886 277.785 433.389 277.268C434.94 276.751 436.726 276.493 438.746 276.493C441.66 276.493 444.197 277.104 446.359 278.325C448.567 279.5 450.282 281.239 451.504 283.541C452.726 285.797 453.337 288.546 453.337 291.788C453.337 295.266 452.679 298.273 451.363 300.81C450.047 303.348 448.191 305.298 445.795 306.661C443.445 308.023 440.626 308.705 437.336 308.705C434.94 308.705 432.708 308.258 430.64 307.366C428.573 306.473 426.74 305.11 425.142 303.277C423.592 301.445 422.37 299.142 421.477 296.37C420.631 293.55 420.208 290.261 420.208 286.502ZM437.266 303.489C440.226 303.489 442.623 302.549 444.456 300.669C446.288 298.743 447.205 295.782 447.205 291.788C447.205 288.593 446.382 286.055 444.738 284.176C443.14 282.296 440.72 281.356 437.477 281.356C435.269 281.356 433.342 281.826 431.698 282.766C430.053 283.659 428.761 284.81 427.821 286.22C426.928 287.63 426.482 289.086 426.482 290.59C426.482 292.141 426.693 293.668 427.116 295.172C427.586 296.675 428.267 298.061 429.16 299.33C430.1 300.599 431.228 301.609 432.543 302.361C433.906 303.113 435.48 303.489 437.266 303.489Z" fill="white"/>
<path d="M588.42 256.968C591.381 256.968 593.989 257.438 596.244 258.378C598.5 259.271 600.262 260.61 601.531 262.396C602.846 264.181 603.504 266.39 603.504 269.021C603.504 271.042 603.058 272.804 602.165 274.308C601.319 275.811 600.168 277.151 598.711 278.325C597.254 279.453 595.657 280.463 593.918 281.356C595.986 282.343 597.865 283.471 599.557 284.74C601.249 285.961 602.588 287.395 603.575 289.039C604.608 290.684 605.125 292.658 605.125 294.96C605.125 297.78 604.444 300.223 603.081 302.291C601.719 304.311 599.792 305.885 597.301 307.013C594.858 308.141 591.968 308.705 588.632 308.705C585.013 308.705 581.935 308.164 579.398 307.084C576.907 306.003 575.004 304.476 573.689 302.502C572.42 300.481 571.785 298.038 571.785 295.172C571.785 292.869 572.255 290.872 573.195 289.18C574.182 287.489 575.474 286.032 577.072 284.81C578.67 283.588 580.385 282.555 582.217 281.709C580.573 280.769 579.069 279.712 577.706 278.537C576.391 277.315 575.333 275.929 574.534 274.378C573.783 272.827 573.407 271.018 573.407 268.951C573.407 266.366 574.064 264.205 575.38 262.466C576.696 260.68 578.482 259.318 580.737 258.378C582.993 257.438 585.554 256.968 588.42 256.968ZM577.847 295.242C577.847 297.686 578.717 299.73 580.455 301.374C582.194 302.972 584.872 303.771 588.491 303.771C590.793 303.771 592.72 303.395 594.27 302.643C595.821 301.891 596.996 300.857 597.795 299.542C598.641 298.226 599.064 296.722 599.064 295.031C599.064 293.386 598.617 291.953 597.724 290.731C596.878 289.462 595.657 288.334 594.059 287.348C592.508 286.361 590.652 285.468 588.491 284.669L587.363 284.246C585.295 285.139 583.557 286.102 582.147 287.136C580.737 288.17 579.656 289.345 578.905 290.66C578.2 291.976 577.847 293.503 577.847 295.242ZM588.35 261.973C585.765 261.973 583.627 262.607 581.935 263.876C580.291 265.097 579.468 266.883 579.468 269.233C579.468 270.971 579.868 272.428 580.667 273.603C581.513 274.778 582.64 275.788 584.05 276.634C585.46 277.433 587.01 278.208 588.702 278.96C590.347 278.255 591.803 277.48 593.072 276.634C594.388 275.788 595.422 274.778 596.174 273.603C596.972 272.381 597.372 270.924 597.372 269.233C597.372 266.883 596.55 265.097 594.905 263.876C593.26 262.607 591.075 261.973 588.35 261.973Z" fill="white"/>
<path d="M724.208 286.502C724.208 283.588 724.396 280.722 724.772 277.902C725.195 275.083 725.9 272.428 726.887 269.938C727.874 267.4 729.236 265.168 730.975 263.241C732.714 261.268 734.899 259.741 737.53 258.66C740.209 257.532 743.451 256.968 747.257 256.968C748.244 256.968 749.325 257.015 750.5 257.109C751.721 257.203 752.708 257.368 753.46 257.602V262.889C752.614 262.607 751.651 262.396 750.57 262.255C749.536 262.114 748.479 262.043 747.398 262.043C744.156 262.043 741.454 262.583 739.292 263.664C737.131 264.745 735.416 266.225 734.147 268.105C732.925 269.985 732.032 272.146 731.468 274.59C730.905 277.033 730.552 279.641 730.411 282.414H730.834C731.539 281.286 732.432 280.275 733.513 279.383C734.593 278.49 735.886 277.785 737.389 277.268C738.94 276.751 740.726 276.493 742.746 276.493C745.66 276.493 748.197 277.104 750.359 278.325C752.567 279.5 754.282 281.239 755.504 283.541C756.726 285.797 757.337 288.546 757.337 291.788C757.337 295.266 756.679 298.273 755.363 300.81C754.047 303.348 752.191 305.298 749.795 306.661C747.445 308.023 744.626 308.705 741.336 308.705C738.94 308.705 736.708 308.258 734.64 307.366C732.573 306.473 730.74 305.11 729.142 303.277C727.592 301.445 726.37 299.142 725.477 296.37C724.631 293.55 724.208 290.261 724.208 286.502ZM741.266 303.489C744.226 303.489 746.623 302.549 748.456 300.669C750.288 298.743 751.205 295.782 751.205 291.788C751.205 288.593 750.382 286.055 748.738 284.176C747.14 282.296 744.72 281.356 741.477 281.356C739.269 281.356 737.342 281.826 735.698 282.766C734.053 283.659 732.761 284.81 731.821 286.22C730.928 287.63 730.482 289.086 730.482 290.59C730.482 292.141 730.693 293.668 731.116 295.172C731.586 296.675 732.267 298.061 733.16 299.33C734.1 300.599 735.228 301.609 736.543 302.361C737.906 303.113 739.48 303.489 741.266 303.489Z" fill="white"/>
<path d="M284.543 372.968C287.504 372.968 290.112 373.438 292.367 374.378C294.623 375.271 296.385 376.61 297.654 378.396C298.97 380.181 299.627 382.39 299.627 385.021C299.627 387.042 299.181 388.804 298.288 390.308C297.442 391.811 296.291 393.151 294.834 394.325C293.378 395.453 291.78 396.463 290.041 397.356C292.109 398.343 293.989 399.471 295.68 400.74C297.372 401.961 298.711 403.395 299.698 405.039C300.732 406.684 301.249 408.658 301.249 410.96C301.249 413.78 300.567 416.223 299.204 418.291C297.842 420.311 295.915 421.885 293.425 423.013C290.981 424.141 288.091 424.705 284.755 424.705C281.137 424.705 278.059 424.164 275.521 423.084C273.031 422.003 271.128 420.476 269.812 418.502C268.543 416.481 267.909 414.038 267.909 411.172C267.909 408.869 268.379 406.872 269.318 405.18C270.305 403.489 271.597 402.032 273.195 400.81C274.793 399.588 276.508 398.555 278.341 397.709C276.696 396.769 275.192 395.712 273.83 394.537C272.514 393.315 271.456 391.929 270.658 390.378C269.906 388.827 269.53 387.018 269.53 384.951C269.53 382.366 270.188 380.205 271.503 378.466C272.819 376.68 274.605 375.318 276.86 374.378C279.116 373.438 281.677 372.968 284.543 372.968ZM273.97 411.242C273.97 413.686 274.84 415.73 276.578 417.374C278.317 418.972 280.996 419.771 284.614 419.771C286.916 419.771 288.843 419.395 290.394 418.643C291.944 417.891 293.119 416.857 293.918 415.542C294.764 414.226 295.187 412.722 295.187 411.031C295.187 409.386 294.74 407.953 293.848 406.731C293.002 405.462 291.78 404.334 290.182 403.348C288.632 402.361 286.775 401.468 284.614 400.669L283.486 400.246C281.419 401.139 279.68 402.102 278.27 403.136C276.86 404.17 275.78 405.345 275.028 406.66C274.323 407.976 273.97 409.503 273.97 411.242ZM284.473 377.973C281.888 377.973 279.75 378.607 278.059 379.876C276.414 381.097 275.592 382.883 275.592 385.233C275.592 386.971 275.991 388.428 276.79 389.603C277.636 390.778 278.764 391.788 280.173 392.634C281.583 393.433 283.134 394.208 284.825 394.96C286.47 394.255 287.927 393.48 289.195 392.634C290.511 391.788 291.545 390.778 292.297 389.603C293.096 388.381 293.495 386.924 293.495 385.233C293.495 382.883 292.673 381.097 291.028 379.876C289.383 378.607 287.198 377.973 284.473 377.973Z" fill="white"/>
<path d="M420.324 402.502C420.324 399.588 420.512 396.722 420.888 393.902C421.311 391.083 422.016 388.428 423.003 385.938C423.99 383.4 425.352 381.168 427.091 379.241C428.83 377.268 431.015 375.741 433.646 374.66C436.325 373.532 439.567 372.968 443.373 372.968C444.36 372.968 445.441 373.015 446.616 373.109C447.837 373.203 448.824 373.368 449.576 373.602V378.889C448.73 378.607 447.767 378.396 446.686 378.255C445.652 378.114 444.595 378.043 443.514 378.043C440.272 378.043 437.57 378.583 435.408 379.664C433.247 380.745 431.532 382.225 430.263 384.105C429.041 385.985 428.148 388.146 427.584 390.59C427.02 393.033 426.668 395.641 426.527 398.414H426.95C427.655 397.286 428.548 396.275 429.628 395.383C430.709 394.49 432.001 393.785 433.505 393.268C435.056 392.751 436.842 392.493 438.862 392.493C441.776 392.493 444.313 393.104 446.475 394.325C448.683 395.5 450.398 397.239 451.62 399.541C452.842 401.797 453.453 404.546 453.453 407.788C453.453 411.266 452.795 414.273 451.479 416.81C450.163 419.348 448.307 421.298 445.911 422.661C443.561 424.023 440.742 424.705 437.452 424.705C435.056 424.705 432.824 424.258 430.756 423.366C428.689 422.473 426.856 421.11 425.258 419.277C423.708 417.445 422.486 415.142 421.593 412.37C420.747 409.55 420.324 406.261 420.324 402.502ZM437.382 419.489C440.342 419.489 442.739 418.549 444.571 416.669C446.404 414.743 447.32 411.782 447.32 407.788C447.32 404.593 446.498 402.055 444.853 400.176C443.256 398.296 440.836 397.356 437.593 397.356C435.385 397.356 433.458 397.826 431.814 398.766C430.169 399.659 428.877 400.81 427.937 402.22C427.044 403.63 426.598 405.086 426.598 406.59C426.598 408.141 426.809 409.668 427.232 411.172C427.702 412.675 428.383 414.061 429.276 415.33C430.216 416.599 431.344 417.609 432.659 418.361C434.022 419.113 435.596 419.489 437.382 419.489Z" fill="white"/>
<path d="M588.529 372.968C591.489 372.968 594.097 373.438 596.353 374.378C598.608 375.271 600.371 376.61 601.639 378.396C602.955 380.181 603.613 382.39 603.613 385.021C603.613 387.042 603.167 388.804 602.274 390.308C601.428 391.811 600.277 393.151 598.82 394.325C597.363 395.453 595.766 396.463 594.027 397.356C596.094 398.343 597.974 399.471 599.666 400.74C601.357 401.961 602.697 403.395 603.683 405.039C604.717 406.684 605.234 408.658 605.234 410.96C605.234 413.78 604.553 416.223 603.19 418.291C601.827 420.311 599.901 421.885 597.41 423.013C594.967 424.141 592.077 424.705 588.74 424.705C585.122 424.705 582.044 424.164 579.507 423.084C577.016 422.003 575.113 420.476 573.797 418.502C572.529 416.481 571.894 414.038 571.894 411.172C571.894 408.869 572.364 406.872 573.304 405.18C574.291 403.489 575.583 402.032 577.181 400.81C578.778 399.588 580.494 398.555 582.326 397.709C580.682 396.769 579.178 395.712 577.815 394.537C576.499 393.315 575.442 391.929 574.643 390.378C573.891 388.827 573.515 387.018 573.515 384.951C573.515 382.366 574.173 380.205 575.489 378.466C576.805 376.68 578.59 375.318 580.846 374.378C583.102 373.438 585.663 372.968 588.529 372.968ZM577.956 411.242C577.956 413.686 578.825 415.73 580.564 417.374C582.303 418.972 584.981 419.771 588.599 419.771C590.902 419.771 592.829 419.395 594.379 418.643C595.93 417.891 597.105 416.857 597.904 415.542C598.749 414.226 599.172 412.722 599.172 411.031C599.172 409.386 598.726 407.953 597.833 406.731C596.987 405.462 595.766 404.334 594.168 403.348C592.617 402.361 590.761 401.468 588.599 400.669L587.472 400.246C585.404 401.139 583.665 402.102 582.256 403.136C580.846 404.17 579.765 405.345 579.013 406.66C578.309 407.976 577.956 409.503 577.956 411.242ZM588.458 377.973C585.874 377.973 583.736 378.607 582.044 379.876C580.4 381.097 579.577 382.883 579.577 385.233C579.577 386.971 579.977 388.428 580.776 389.603C581.621 390.778 582.749 391.788 584.159 392.634C585.569 393.433 587.119 394.208 588.811 394.96C590.456 394.255 591.912 393.48 593.181 392.634C594.497 391.788 595.531 390.778 596.282 389.603C597.081 388.381 597.481 386.924 597.481 385.233C597.481 382.883 596.658 381.097 595.014 379.876C593.369 378.607 591.184 377.973 588.458 377.973Z" fill="white"/>
<path d="M724.31 402.502C724.31 399.588 724.498 396.722 724.874 393.902C725.297 391.083 726.002 388.428 726.988 385.938C727.975 383.4 729.338 381.168 731.077 379.241C732.815 377.268 735 375.741 737.632 374.66C740.31 373.532 743.553 372.968 747.359 372.968C748.346 372.968 749.426 373.015 750.601 373.109C751.823 373.203 752.81 373.368 753.562 373.602V378.889C752.716 378.607 751.752 378.396 750.672 378.255C749.638 378.114 748.581 378.043 747.5 378.043C744.257 378.043 741.555 378.583 739.394 379.664C737.232 380.745 735.517 382.225 734.248 384.105C733.027 385.985 732.134 388.146 731.57 390.59C731.006 393.033 730.654 395.641 730.513 398.414H730.936C731.64 397.286 732.533 396.275 733.614 395.383C734.695 394.49 735.987 393.785 737.491 393.268C739.041 392.751 740.827 392.493 742.848 392.493C745.761 392.493 748.299 393.104 750.46 394.325C752.669 395.5 754.384 397.239 755.606 399.541C756.827 401.797 757.438 404.546 757.438 407.788C757.438 411.266 756.78 414.273 755.465 416.81C754.149 419.348 752.293 421.298 749.896 422.661C747.547 424.023 744.727 424.705 741.438 424.705C739.041 424.705 736.809 424.258 734.742 423.366C732.674 422.473 730.842 421.11 729.244 419.277C727.693 417.445 726.471 415.142 725.579 412.37C724.733 409.55 724.31 406.261 724.31 402.502ZM741.367 419.489C744.328 419.489 746.724 418.549 748.557 416.669C750.39 414.743 751.306 411.782 751.306 407.788C751.306 404.593 750.484 402.055 748.839 400.176C747.241 398.296 744.821 397.356 741.579 397.356C739.37 397.356 737.444 397.826 735.799 398.766C734.154 399.659 732.862 400.81 731.922 402.22C731.03 403.63 730.583 405.086 730.583 406.59C730.583 408.141 730.795 409.668 731.218 411.172C731.687 412.675 732.369 414.061 733.262 415.33C734.201 416.599 735.329 417.609 736.645 418.361C738.008 419.113 739.582 419.489 741.367 419.489Z" fill="white"/>
<defs>
<filter id="filter0_d_111_43" x="40.5" y="0.5" width="947" height="637" filterUnits="userSpaceOnUse" color-interpolation-filters="sRGB">
<feFlood flood-opacity="0" result="BackgroundImageFix"/>
<feColorMatrix in="SourceAlpha" type="matrix" values="0 0 0 0 0 0 0 0 0 0 0 0 0 0 0 0 0 0 127 0" result="hardAlpha"/>
<feMorphology radius="11" operator="dilate" in="SourceAlpha" result="effect1_dropShadow_111_43"/>
<feOffset dy="4"/>
<feGaussianBlur stdDeviation="43.75"/>
<feComposite in2="hardAlpha" operator="out"/>
<feColorMatrix type="matrix" values="0 0 0 0 0.0775053 0 0 0 0 0.0775053 0 0 0 0 0.0775053 0 0 0 1 0"/>
<feBlend mode="normal" in2="BackgroundImageFix" result="effect1_dropShadow_111_43"/>
<feBlend mode="normal" in="SourceGraphic" in2="effect1_dropShadow_111_43" result="shape"/>
</filter>
</defs>
</svg>
